<mxfile host="app.diagrams.net" modified="2023-05-23T16:25:52.360Z" agent="Mozilla/5.0 (Windows NT 10.0; Win64; x64; rv:109.0) Gecko/20100101 Firefox/113.0" etag="NBN1SEGMpSL16E_CDnUM" version="21.3.3">
  <diagram name="Page-1" id="0Xxx2EeHz7tDcuvda4HO">
    <mxGraphModel dx="1050" dy="536" grid="1" gridSize="10" guides="1" tooltips="1" connect="1" arrows="1" fold="1" page="1" pageScale="1" pageWidth="850" pageHeight="1100" math="0" shadow="0">
      <root>
        <mxCell id="0" />
        <mxCell id="1" parent="0" />
        <mxCell id="n6mkTR_JP3E0pSqUcmpw-33" style="edgeStyle=orthogonalEdgeStyle;rounded=0;orthogonalLoop=1;jettySize=auto;html=1;entryX=0;entryY=0.25;entryDx=0;entryDy=0;" edge="1" parent="1" source="n6mkTR_JP3E0pSqUcmpw-8" target="n6mkTR_JP3E0pSqUcmpw-16">
          <mxGeometry relative="1" as="geometry" />
        </mxCell>
        <mxCell id="n6mkTR_JP3E0pSqUcmpw-8" value="Prieten" style="swimlane;fontStyle=0;childLayout=stackLayout;horizontal=1;startSize=26;fillColor=none;horizontalStack=0;resizeParent=1;resizeParentMax=0;resizeLast=0;collapsible=1;marginBottom=0;whiteSpace=wrap;html=1;" vertex="1" parent="1">
          <mxGeometry x="10" y="160" width="170" height="104" as="geometry">
            <mxRectangle x="40" y="158" width="80" height="30" as="alternateBounds" />
          </mxGeometry>
        </mxCell>
        <mxCell id="n6mkTR_JP3E0pSqUcmpw-9" value="- data de nastere : string" style="text;strokeColor=none;fillColor=none;align=left;verticalAlign=top;spacingLeft=4;spacingRight=4;overflow=hidden;rotatable=0;points=[[0,0.5],[1,0.5]];portConstraint=eastwest;whiteSpace=wrap;html=1;" vertex="1" parent="n6mkTR_JP3E0pSqUcmpw-8">
          <mxGeometry y="26" width="170" height="26" as="geometry" />
        </mxCell>
        <mxCell id="n6mkTR_JP3E0pSqUcmpw-10" value="- numar de telefon : string" style="text;strokeColor=none;fillColor=none;align=left;verticalAlign=top;spacingLeft=4;spacingRight=4;overflow=hidden;rotatable=0;points=[[0,0.5],[1,0.5]];portConstraint=eastwest;whiteSpace=wrap;html=1;" vertex="1" parent="n6mkTR_JP3E0pSqUcmpw-8">
          <mxGeometry y="52" width="170" height="26" as="geometry" />
        </mxCell>
        <mxCell id="n6mkTR_JP3E0pSqUcmpw-11" value="- adresa : string" style="text;strokeColor=none;fillColor=none;align=left;verticalAlign=top;spacingLeft=4;spacingRight=4;overflow=hidden;rotatable=0;points=[[0,0.5],[1,0.5]];portConstraint=eastwest;whiteSpace=wrap;html=1;" vertex="1" parent="n6mkTR_JP3E0pSqUcmpw-8">
          <mxGeometry y="78" width="170" height="26" as="geometry" />
        </mxCell>
        <mxCell id="n6mkTR_JP3E0pSqUcmpw-31" style="edgeStyle=orthogonalEdgeStyle;rounded=0;orthogonalLoop=1;jettySize=auto;html=1;" edge="1" parent="1" source="n6mkTR_JP3E0pSqUcmpw-12" target="n6mkTR_JP3E0pSqUcmpw-16">
          <mxGeometry relative="1" as="geometry">
            <Array as="points">
              <mxPoint x="250" y="130" />
              <mxPoint x="250" y="130" />
            </Array>
          </mxGeometry>
        </mxCell>
        <mxCell id="n6mkTR_JP3E0pSqUcmpw-12" value="Cunoscut" style="swimlane;fontStyle=0;childLayout=stackLayout;horizontal=1;startSize=26;fillColor=none;horizontalStack=0;resizeParent=1;resizeParentMax=0;resizeLast=0;collapsible=1;marginBottom=0;whiteSpace=wrap;html=1;" vertex="1" parent="1">
          <mxGeometry x="130" y="310" width="180" height="70" as="geometry" />
        </mxCell>
        <mxCell id="n6mkTR_JP3E0pSqUcmpw-13" value="- numar de telefon : string" style="text;strokeColor=none;fillColor=none;align=left;verticalAlign=top;spacingLeft=4;spacingRight=4;overflow=hidden;rotatable=0;points=[[0,0.5],[1,0.5]];portConstraint=eastwest;whiteSpace=wrap;html=1;" vertex="1" parent="n6mkTR_JP3E0pSqUcmpw-12">
          <mxGeometry y="26" width="180" height="44" as="geometry" />
        </mxCell>
        <mxCell id="n6mkTR_JP3E0pSqUcmpw-16" value="Contact" style="swimlane;fontStyle=0;childLayout=stackLayout;horizontal=1;startSize=26;fillColor=none;horizontalStack=0;resizeParent=1;resizeParentMax=0;resizeLast=0;collapsible=1;marginBottom=0;whiteSpace=wrap;html=1;" vertex="1" parent="1">
          <mxGeometry x="180" y="20" width="140" height="52" as="geometry" />
        </mxCell>
        <mxCell id="n6mkTR_JP3E0pSqUcmpw-17" value="- nume : string" style="text;strokeColor=none;fillColor=none;align=left;verticalAlign=top;spacingLeft=4;spacingRight=4;overflow=hidden;rotatable=0;points=[[0,0.5],[1,0.5]];portConstraint=eastwest;whiteSpace=wrap;html=1;" vertex="1" parent="n6mkTR_JP3E0pSqUcmpw-16">
          <mxGeometry y="26" width="140" height="26" as="geometry" />
        </mxCell>
        <mxCell id="n6mkTR_JP3E0pSqUcmpw-42" style="edgeStyle=orthogonalEdgeStyle;rounded=0;orthogonalLoop=1;jettySize=auto;html=1;entryX=1;entryY=0.25;entryDx=0;entryDy=0;" edge="1" parent="1" source="n6mkTR_JP3E0pSqUcmpw-24" target="n6mkTR_JP3E0pSqUcmpw-16">
          <mxGeometry relative="1" as="geometry">
            <Array as="points">
              <mxPoint x="440" y="33" />
            </Array>
          </mxGeometry>
        </mxCell>
        <mxCell id="n6mkTR_JP3E0pSqUcmpw-24" value="Coleg" style="swimlane;fontStyle=0;childLayout=stackLayout;horizontal=1;startSize=26;fillColor=none;horizontalStack=0;resizeParent=1;resizeParentMax=0;resizeLast=0;collapsible=1;marginBottom=0;whiteSpace=wrap;html=1;" vertex="1" parent="1">
          <mxGeometry x="400" y="160" width="170" height="116" as="geometry" />
        </mxCell>
        <mxCell id="n6mkTR_JP3E0pSqUcmpw-25" value="- numar de telefon : string" style="text;strokeColor=none;fillColor=none;align=left;verticalAlign=top;spacingLeft=4;spacingRight=4;overflow=hidden;rotatable=0;points=[[0,0.5],[1,0.5]];portConstraint=eastwest;whiteSpace=wrap;html=1;" vertex="1" parent="n6mkTR_JP3E0pSqUcmpw-24">
          <mxGeometry y="26" width="170" height="26" as="geometry" />
        </mxCell>
        <mxCell id="n6mkTR_JP3E0pSqUcmpw-26" value="- firma : string" style="text;strokeColor=none;fillColor=none;align=left;verticalAlign=top;spacingLeft=4;spacingRight=4;overflow=hidden;rotatable=0;points=[[0,0.5],[1,0.5]];portConstraint=eastwest;whiteSpace=wrap;html=1;" vertex="1" parent="n6mkTR_JP3E0pSqUcmpw-24">
          <mxGeometry y="52" width="170" height="26" as="geometry" />
        </mxCell>
        <mxCell id="n6mkTR_JP3E0pSqUcmpw-27" value="- adresa : string" style="text;strokeColor=none;fillColor=none;align=left;verticalAlign=top;spacingLeft=4;spacingRight=4;overflow=hidden;rotatable=0;points=[[0,0.5],[1,0.5]];portConstraint=eastwest;whiteSpace=wrap;html=1;" vertex="1" parent="n6mkTR_JP3E0pSqUcmpw-24">
          <mxGeometry y="78" width="170" height="38" as="geometry" />
        </mxCell>
        <mxCell id="n6mkTR_JP3E0pSqUcmpw-34" value="Agenda" style="swimlane;fontStyle=1;align=center;verticalAlign=top;childLayout=stackLayout;horizontal=1;startSize=26;horizontalStack=0;resizeParent=1;resizeParentMax=0;resizeLast=0;collapsible=1;marginBottom=0;whiteSpace=wrap;html=1;" vertex="1" parent="1">
          <mxGeometry x="600" y="40" width="190" height="168" as="geometry" />
        </mxCell>
        <mxCell id="n6mkTR_JP3E0pSqUcmpw-35" value="- agenda : list&amp;lt;Contact*&amp;gt; " style="text;strokeColor=none;fillColor=none;align=left;verticalAlign=top;spacingLeft=4;spacingRight=4;overflow=hidden;rotatable=0;points=[[0,0.5],[1,0.5]];portConstraint=eastwest;whiteSpace=wrap;html=1;" vertex="1" parent="n6mkTR_JP3E0pSqUcmpw-34">
          <mxGeometry y="26" width="190" height="26" as="geometry" />
        </mxCell>
        <mxCell id="n6mkTR_JP3E0pSqUcmpw-36" value="" style="line;strokeWidth=1;fillColor=none;align=left;verticalAlign=middle;spacingTop=-1;spacingLeft=3;spacingRight=3;rotatable=0;labelPosition=right;points=[];portConstraint=eastwest;strokeColor=inherit;" vertex="1" parent="n6mkTR_JP3E0pSqUcmpw-34">
          <mxGeometry y="52" width="190" height="8" as="geometry" />
        </mxCell>
        <mxCell id="n6mkTR_JP3E0pSqUcmpw-37" value="+ find(name) : bool" style="text;strokeColor=none;fillColor=none;align=left;verticalAlign=top;spacingLeft=4;spacingRight=4;overflow=hidden;rotatable=0;points=[[0,0.5],[1,0.5]];portConstraint=eastwest;whiteSpace=wrap;html=1;" vertex="1" parent="n6mkTR_JP3E0pSqUcmpw-34">
          <mxGeometry y="60" width="190" height="30" as="geometry" />
        </mxCell>
        <mxCell id="n6mkTR_JP3E0pSqUcmpw-38" value="+ getFriends() : list&amp;lt;Prieten*&amp;gt; " style="text;strokeColor=none;fillColor=none;align=left;verticalAlign=top;spacingLeft=4;spacingRight=4;overflow=hidden;rotatable=0;points=[[0,0.5],[1,0.5]];portConstraint=eastwest;whiteSpace=wrap;html=1;" vertex="1" parent="n6mkTR_JP3E0pSqUcmpw-34">
          <mxGeometry y="90" width="190" height="26" as="geometry" />
        </mxCell>
        <mxCell id="n6mkTR_JP3E0pSqUcmpw-39" value="+ delete(name) : void" style="text;strokeColor=none;fillColor=none;align=left;verticalAlign=top;spacingLeft=4;spacingRight=4;overflow=hidden;rotatable=0;points=[[0,0.5],[1,0.5]];portConstraint=eastwest;whiteSpace=wrap;html=1;" vertex="1" parent="n6mkTR_JP3E0pSqUcmpw-34">
          <mxGeometry y="116" width="190" height="26" as="geometry" />
        </mxCell>
        <mxCell id="n6mkTR_JP3E0pSqUcmpw-41" value="+ add(contact) : void" style="text;strokeColor=none;fillColor=none;align=left;verticalAlign=top;spacingLeft=4;spacingRight=4;overflow=hidden;rotatable=0;points=[[0,0.5],[1,0.5]];portConstraint=eastwest;whiteSpace=wrap;html=1;" vertex="1" parent="n6mkTR_JP3E0pSqUcmpw-34">
          <mxGeometry y="142" width="190" height="26" as="geometry" />
        </mxCell>
        <mxCell id="n6mkTR_JP3E0pSqUcmpw-49" style="edgeStyle=orthogonalEdgeStyle;rounded=0;orthogonalLoop=1;jettySize=auto;html=1;exitX=0.25;exitY=0;exitDx=0;exitDy=0;entryX=0.95;entryY=1;entryDx=0;entryDy=0;entryPerimeter=0;endArrow=diamondThin;endFill=1;" edge="1" parent="1" source="n6mkTR_JP3E0pSqUcmpw-44" target="n6mkTR_JP3E0pSqUcmpw-17">
          <mxGeometry relative="1" as="geometry" />
        </mxCell>
        <mxCell id="n6mkTR_JP3E0pSqUcmpw-44" value="&lt;p style=&quot;margin:0px;margin-top:4px;text-align:center;&quot;&gt;&amp;lt;&amp;lt;enumeration&amp;gt;&amp;gt;&lt;br&gt;&lt;b&gt;Enumeration&lt;/b&gt;&lt;/p&gt;&lt;hr&gt;&lt;p style=&quot;margin:0px;margin-left:8px;text-align:left;&quot;&gt;Prieten&lt;br&gt;&lt;/p&gt;&lt;p style=&quot;margin:0px;margin-left:8px;text-align:left;&quot;&gt;Cunoscut&lt;/p&gt;&lt;p style=&quot;margin:0px;margin-left:8px;text-align:left;&quot;&gt;Coleg&lt;br&gt;&lt;/p&gt;" style="shape=rect;html=1;overflow=fill;whiteSpace=wrap;" vertex="1" parent="1">
          <mxGeometry x="330" y="370" width="200" height="100" as="geometry" />
        </mxCell>
        <mxCell id="n6mkTR_JP3E0pSqUcmpw-53" value="&lt;div&gt;Contacts&lt;/div&gt;&lt;div&gt;&lt;br&gt;&lt;/div&gt;" style="text;html=1;align=center;verticalAlign=middle;resizable=0;points=[];autosize=1;strokeColor=none;fillColor=none;" vertex="1" parent="1">
          <mxGeometry x="520" y="90" width="70" height="40" as="geometry" />
        </mxCell>
        <mxCell id="n6mkTR_JP3E0pSqUcmpw-54" value="*" style="text;html=1;align=center;verticalAlign=middle;resizable=0;points=[];autosize=1;strokeColor=none;fillColor=none;" vertex="1" parent="1">
          <mxGeometry x="560" y="120" width="30" height="30" as="geometry" />
        </mxCell>
        <mxCell id="n6mkTR_JP3E0pSqUcmpw-55" style="edgeStyle=orthogonalEdgeStyle;rounded=0;orthogonalLoop=1;jettySize=auto;html=1;exitX=1;exitY=0.5;exitDx=0;exitDy=0;endArrow=diamondThin;endFill=1;" edge="1" parent="1" source="n6mkTR_JP3E0pSqUcmpw-17" target="n6mkTR_JP3E0pSqUcmpw-34">
          <mxGeometry relative="1" as="geometry" />
        </mxCell>
      </root>
    </mxGraphModel>
  </diagram>
</mxfile>
